<svg id="Effect_LC" height="512" viewBox="0 0 100 100" width="512" xmlns="http://www.w3.org/2000/svg" data-name="Effect LC"><g fill="#ffdb04"><path d="m20.956 45.369c.144.997.999 1.715 1.977 1.715.096 0 .191-.007.288-.021 1.093-.157 1.852-1.171 1.694-2.265l-3.217-22.346c-.157-1.094-1.18-1.851-2.265-1.694-1.093.157-1.852 1.171-1.694 2.265z"/><path d="m35.208 47.918c.146.033.292.048.436.048.917 0 1.743-.634 1.95-1.566l7.516-33.804c.24-1.078-.439-2.146-1.519-2.386-1.077-.243-2.146.44-2.386 1.518l-7.516 33.804c-.24 1.078.439 2.146 1.519 2.386z"/><path d="m91.039 62.25-34.598 6.15c-1.088.193-1.812 1.232-1.619 2.319.172.969 1.016 1.65 1.967 1.65.116 0 .233-.01.352-.031l34.598-6.15c1.088-.193 1.812-1.232 1.619-2.319-.192-1.088-1.232-1.81-2.318-1.619z"/><path d="m79.366 88.595c.059.005.116.007.174.007 1.027 0 1.901-.787 1.99-1.829.095-1.101-.721-2.069-1.82-2.164l-22.747-1.957c-1.104-.098-2.07.721-2.164 1.821-.095 1.101.721 2.069 1.82 2.164l22.747 1.957z"/></g><path d="m18.451 42.298c.316 1.945 3.219 1.53 2.969-.428 0 0-3.217-22.346-3.217-22.346-.313-1.937-3.218-1.535-2.969.428 0 0 3.217 22.346 3.217 22.346z"/><path d="m32.316 44.43c.788.182 1.613-.325 1.789-1.139l7.516-33.804c.18-.809-.33-1.61-1.139-1.79-.812-.181-1.609.331-1.789 1.139l-7.516 33.804c-.18.809.33 1.61 1.139 1.79z"/><path d="m53.789 68.87c.305.017 34.557-6.145 34.863-6.174 1.921-.371 1.434-3.268-.526-2.954 0 0-34.598 6.15-34.598 6.15-1.776.327-1.543 2.969.261 2.978z"/><path d="m53.92 80.151c-1.966-.127-2.221 2.783-.258 2.989 0 0 22.747 1.957 22.747 1.957 1.953.14 2.23-2.784.258-2.989 0 0-22.747-1.957-22.747-1.957z"/></svg>