<svg id="Effect_LC" height="512" viewBox="0 0 100 100" width="512" xmlns="http://www.w3.org/2000/svg" data-name="Effect LC"><g fill="#fcc"><path d="m36.707 76.122c1.072.321 2.182.477 3.309.477 4.189 0 8.6-2.163 12.104-6.079 2.344-2.62 3.873-5.528 4.454-8.269 4.179-.68 8.953-2.704 10.267-6.422 1.427-2.566 1.343-5.761-.183-9.072 2.669-1.25 4.963-3.009 6.487-5.104 3.741-4.895 3.618-12.448-.313-19.242-3.905-6.749-10.245-10.607-16.137-9.83-1.095.145-1.866 1.149-1.722 2.244s1.142 1.867 2.244 1.722c4.885-.644 9.618 3.489 12.152 7.868 2.369 4.093 3.946 10.428.569 14.848-1.195 1.642-3.133 3.045-5.386 4.03-3.343-4.399-9.097-8.387-13.82-7.542-1.551.278-4.312 1.366-5.379 5.528-.131.511-.055 1.053.212 1.508 2.125 3.627 6.021 5.759 10.971 6.005 2.119.101 4.276-.139 6.335-.673.847 1.707 1.524 4.004.417 5.867-.081.136-.146.281-.192.432-.481 1.558-3.105 3.067-6.405 3.747-.107-.591-.273-1.158-.501-1.694-.931-2.192-3.259-4.853-9.069-5.073-.763-.028-1.438.357-1.809 1-1.928 3.346-1.251 5.632-.344 6.961 1.463 2.145 4.366 3.021 7.373 3.154-.592 1.768-1.698 3.66-3.202 5.341-2.666 2.98-7.029 5.708-11.286 4.437-1.057-.316-2.172.285-2.489 1.343s.285 2.172 1.343 2.489zm20.026-31.326c-1.902-.095-5.239-.665-7.247-3.326.551-1.366 1.356-1.676 1.951-1.783 2.364-.422 6.155 1.702 8.972 4.859-1.226.219-2.47.306-3.676.25zm-8.462 12.307c-.286-.419-.221-1.01-.016-1.601 1.746.239 3.56.9 4.252 2.529.067.158.124.324.169.497-2.296-.074-3.9-.686-4.405-1.426z"/><path d="m93.077 65.271h-.003c-1.104.001-1.999.898-1.997 2.003.016 10.914-2.137 17.569-5.761 17.803-1.853.121-3.979-1.252-5.753-3.188 2.693-4.253 4.221-9.164 2.856-12.049-.416-.879-1.741-2.854-5.068-2.211-3.855.742-5.927 3.727-5.407 7.789.278 2.173 1.231 4.503 2.614 6.614-.332.406-.683.806-1.053 1.195-2.025 2.126-4.93 4.241-7.736 2.969l.045-.045c3.769-3.774 3.921-8.631.399-12.677-.171-.197-.379-.358-.612-.475-2.854-1.429-4.747-.596-5.621.029-1.899 1.356-2.749 4.27-2.272 7.793.209 1.548.723 3.331 1.589 4.878-3.206 1.312-7.062 1.412-9.389-.609-.834-.725-2.098-.635-2.821.199-.724.834-.635 2.097.199 2.821 2.027 1.76 4.66 2.529 7.382 2.529 2.563 0 5.206-.682 7.496-1.864.197.113.401.215.612.306 3.533 2.411 7.856 1.878 11.903-1.483.838-.696 1.661-1.515 2.442-2.416 2.46 2.445 5.494 4.064 8.451 3.886 4.35-.281 9.529-4.291 9.503-21.801-.001-1.104-.897-1.997-2-1.997zm-30.093 18.053c-.092.092-.188.184-.285.273-.485-.917-.86-2.081-1.026-3.312-.302-2.233.188-3.686.633-4.003.072-.051.175-.076.305-.076.219 0 .513.072.849.209 1.891 2.375 1.732 4.698-.476 6.909zm14.056-5.049c-.588-1.149-.992-2.311-1.127-3.366-.323-2.52.929-3.109 2.195-3.353.223-.043.384-.053.494-.053.122 0 .179.013.181.007.496.639-.04 3.533-1.743 6.765z"/><path d="m28.555 57.984c-.134-1.245-.505-2.353-1.09-3.3 1.859-2.387 3.1-5.241 3.357-8.102.17-1.895-.107-3.671-.785-5.253.328-.354.634-.731.919-1.132 2.711-3.823 2.825-9.229.282-13.453-2.97-4.934-8.617-7.25-15.5-6.349-1.095.143-1.867 1.147-1.724 2.242s1.147 1.87 2.242 1.724c5.234-.683 9.441.937 11.554 4.446 1.735 2.882 1.688 6.529-.118 9.075-.013.019-.027.038-.041.057-.704-.663-1.516-1.25-2.429-1.748-3.193-1.875-9.807-1.482-11.944 1.476-.672.93-1.849 3.433 1.724 6.566.26.228.574.384.912.455 4.129.858 7.828.53 10.75-.881.216.851.238 1.685.172 2.417-.18 2.006-1.051 4.043-2.35 5.785-.938-.47-2.02-.795-3.231-.959-.058-.008-.115-.013-.173-.016-3.498-.173-6.568 2.197-7.68 4.504-.72 1.495-.61 3.002.295 4.032 1.19 1.355 3.322 1.538 6.338.541 1.57-.521 3.063-1.35 4.412-2.401.06.22.104.454.13.701.373 3.466-2.612 8.09-6.027 9.334-1.038.378-1.573 1.526-1.195 2.564.296.812 1.063 1.316 1.879 1.316.228 0 .458-.039.685-.121 5.173-1.885 9.208-8.203 8.635-13.521zm-11.289-17.106c-.488-.489-.647-.803-.696-.932.726-.845 4.856-1.343 6.682-.272.44.24.829.497 1.173.767-1.93.788-4.36.946-7.159.438zm1.513 15.437c-.583.192-1.037.303-1.384.365.644-.757 1.884-1.653 3.332-1.653h.084c.148.022.292.046.431.074-.781.517-1.609.93-2.463 1.213z"/></g><path d="m33.881 72.652c8.852 2.277 17.303-5.493 19.291-13.818 8.076-.929 14.019-7.412 9.812-15.333 16.226-6.424 9.182-29.662-5.258-33.254-1.245-.255-2.509-.334-3.771-.185-1.894.224-1.917 3.226 0 3 7.861-.928 13.908 7.481 15.195 14.363 1.271 6.052-2.05 11.353-7.752 13.502-3.615-5.527-14.723-12.495-18.287-3.411-.25.679-.441 1.319-.116 2.014 3.332 5.867 11.19 6.691 17.119 4.988 3.412 6.076-.587 10.372-6.807 11.267-.416-4.633-5.051-6.865-9.263-6.892-.514-.024-1.047.3-1.295.743-.905 1.611-1.549 3.541-.906 5.365 1.239 3.198 5.023 3.996 8.144 4.073-1.819 6.228-8.483 12.441-15.308 10.684-1.859-.533-2.653 2.361-.798 2.893zm22.6-30.449c-3.863.445-8.183-.373-10.541-3.66.431-1.165 1.123-2.021 2.173-2.295 3.925-.571 7.793 2.718 10.257 5.627-.63.139-1.261.256-1.888.329zm-7.128 13.81c-2.355-.099-5.962-.98-4.413-4.046 2.541.222 5.092 1.417 5.344 4.059-.314 0-.629.001-.931-.013z"/><path d="m69.759 73.927c.488 1.797 1.339 3.545 2.427 5.129-2.459 3.191-6.441 6.61-10.264 4.233 2.463-2.12 3.936-5.388 3.07-8.627-.39-1.462-1.373-3.541-2.751-4.276-4.486-2.267-7.334 1.38-7.159 5.706.027 2.378.657 4.902 1.984 6.917-3.534 1.477-7.451 1.826-10.407-.467-1.469-1.234-3.602.877-2.121 2.121 4.072 3.421 10.131 3.058 14.705.526 5.179 4.105 11.287.758 14.898-3.744 2.79 2.93 7.182 5.478 11.158 3.313 6.268-3.805 6.047-14.031 6.278-20.486.002-1.93-2.998-1.933-3 0-.07 5.176.157 16.558-6.031 18.298.064-.011.142.003-.17.007-.31.004-.614.003-.923-.031-1.925-.313-4.125-1.9-5.492-3.518 2.088-3.279 5.2-9.649 2.302-12.987-1.467-1.47-3.815-1.151-5.543-.371-3.262 1.472-3.816 5.111-2.96 8.258zm-10.139 7.514c-1.449-2.263-2.121-5.646-.995-8.112.314-.523.562-.703 1.185-.616 2.05.286 2.793 3.444 2.245 5.261-.412 1.366-1.294 2.527-2.435 3.466zm12.779-10.872c.087-.454.266-1.178.675-1.559.21-.229.458-.401.733-.547.208-.121.349-.163.239-.121.789-.29 1.281-.44 1.972-.27.06.034.113.062.157.125-.024-.028-.03-.042-.03-.047.15.155.221.525.268.755.15 2.398-1.13 5.242-2.383 7.414-1.066-1.814-1.805-3.69-1.631-5.751z"/><path d="m12.924 41.178c3.565.902 7.749.7 11.003-1.113 1.191 3.267-.167 6.931-2.29 9.6-3.603-2.28-8.694-.835-10.676 2.885-.92 1.747-.575 3.998 1.569 4.561 3.197.726 6.714-1.235 9.101-3.198 1.763 4.211-1.807 9.712-5.793 11.266-1.787.68-1.012 3.581.797 2.893 5.994-2.254 10.859-10.435 7.196-16.394 3.09-3.651 4.544-9.228 2.531-13.454 3.868-3.673 4.173-10.127 1.277-14.495-3.097-4.846-9.15-6.633-14.641-5.85-1.891.234-1.914 3.237 0 3 3.458-.429 7.196-.096 10.022 2.141 3.862 3.009 4.832 8.97 1.656 12.692-2.075-2.3-5.208-3.398-8.285-3.13-2.043.143-4.692.685-5.846 2.592-1.316 2.094.334 5.088 2.379 6.003zm5.261 11.552c-1.319.788-2.788 1.387-4.328 1.519.063-.002-.281-.011-.383-.007.882-2.094 3.905-3.219 5.876-2.323-.378.294-.766.567-1.165.811zm-4.926-16.167c2.527-1.795 6.928-1.179 9.043 1.005-2.177 1.112-4.843 1.278-7.256.953-.184-.025-1.202-.24-.906-.07-.367-.211-.743-.749-.942-1.121-.249-.465-.234-.485.061-.766z"/></svg>