<svg id="Effect_LC" height="512" viewBox="0 0 100 100" width="512" xmlns="http://www.w3.org/2000/svg" data-name="Effect LC"><g fill="#ffdb04"><path d="m66.818 46.571-14.443-18.836 33.783-19.81-53.654 14.849 16.369 19.989-18.714 29.93z"/><path d="m15.432 11.263-11.215 19.281 11.629 9.765.37 23.305 8.673-26.175-11.477-11.809z"/><path d="m64.778 82.169-28.11.572 35.561 9.345 1.964-19.393 21.609-4.229-29.567-4.85z"/></g><path d="m63.049 51.091c1.29-1.4 6.197-3.047 5.064-5.277-4.508-5.879-9.017-11.759-13.525-17.638 10.852-6.402 21.78-12.699 32.596-19.153 1.119-1.001-.051-3.081-1.501-2.524-15.654 4.332-31.309 8.665-46.963 12.998-1.914 1.045-9.442.977-7.277 4.338 4.774 5.83 15.169 18.523 15.592 19.04-6.057 9.687-12.114 19.374-18.171 29.061-.763 1.22.808 2.939 2.052 2.052 10.711-7.632 21.422-15.265 32.134-22.897zm-15.233-3.81c.676-1.741 3.466-3.68 2.117-5.579-4.94-6.032-9.879-12.063-14.818-18.095 12.754-3.53 27.754-7.681 40.398-11.18-7.923 4.646-15.963 9.361-23.895 14.012-.635.372-1.034 1.406-.538 2.052 4.539 5.919 9.077 11.837 13.616 17.756-9.759 6.954-19.518 13.908-29.278 20.862 4.133-6.61 8.266-13.22 12.399-19.83z"/><path d="m14.989 25.101c.63-4.48 1.259-8.959 1.889-13.439.221-1.571-1.815-2.749-2.742-1.156-3.274 5.63-6.549 11.259-9.823 16.889-.533 1.277-2.409 2.857-1.157 4.21l11.2 9.405c.104 6.561.342 21.531.357 22.455-.29 1.786 2.665 2.229 2.976.466 2.524-7.618 8.287-25.013 8.645-26.093.168-.506-.026-1.089-.386-1.459-3.653-3.759-7.307-7.518-10.96-11.277zm2.586 29.647c-.539-18.475 2.796-12.459-11.429-24.535 2.25-3.869 4.501-7.738 6.751-11.608-.268 1.905-.536 3.81-.803 5.715-.12.856-.332 1.623.261 2.375 3.026 3.139 7.82 8.028 10.825 11.138-1.868 5.638-3.736 11.277-5.604 16.915z"/><path d="m96.201 67.017c-2.463-.41-27.871-4.567-29.567-4.849-1.011-.166-1.817.401-1.899 1.446-.447 5.694-.894 11.389-1.341 17.083 0 0-25.803.473-27.054.583-1.468.31-1.522 2.737.05 2.939 10.324 2.713 33.951 8.922 35.44 9.313 1.019.268 1.801-.484 1.899-1.446.612-6.046 1.225-12.091 1.837-18.137 5.972-1.169 19.728-3.862 20.634-4.039 1.408-.276 1.455-2.654 0-2.893zm-19.688 3.697c-1.354.431-3.702.071-3.819 1.978-.591 5.833-1.182 11.666-1.773 17.498-7.825-2.056-15.651-4.113-23.476-6.169 5.778-.118 11.556-.235 17.334-.353.858-.017 1.435-.676 1.5-1.5.44-5.607.88-11.213 1.32-16.82 6.588 1.08 13.175 2.161 19.763 3.241-3.616.708-7.233 1.416-10.849 2.123z"/></svg>