<svg version="1.1" id="Layer_1" xmlns="http://www.w3.org/2000/svg" xmlns:xlink="http://www.w3.org/1999/xlink" x="0px" y="0px"
	 width="100%" viewBox="0 0 405 407" enable-background="new 0 0 405 407" xml:space="preserve">
<path fill="#000000" opacity="0.000000" stroke="none" 
	d="
M236.000000,408.000000 
	C157.333328,408.000000 79.166664,408.000000 1.000000,408.000000 
	C1.000000,272.333344 1.000000,136.666672 1.000000,1.000000 
	C136.000000,1.000000 271.000000,1.000000 406.000000,1.000000 
	C406.000000,136.666672 406.000000,272.333344 406.000000,408.000000 
	C349.500000,408.000000 293.000000,408.000000 236.000000,408.000000 
M220.207184,204.466080 
	C228.590149,225.408325 236.947144,246.361023 245.365784,267.288910 
	C250.448334,279.923645 250.491348,279.907562 264.113983,279.916107 
	C269.813904,279.919678 275.513855,279.916718 281.894165,279.916718 
	C254.861557,214.853088 228.234238,150.764908 201.085800,85.422516 
	C173.802002,150.905151 147.066544,215.071732 120.063026,279.881683 
	C129.583023,279.881683 138.220505,279.700226 146.844147,279.966461 
	C150.560867,280.081207 152.449249,278.961639 153.854630,275.385864 
	C166.957016,242.049255 180.243637,208.785019 193.499771,175.508942 
	C195.795975,169.744919 198.199570,164.023666 201.157166,156.810532 
	C207.770569,173.443100 213.803833,188.616623 220.207184,204.466080 
M230.452499,260.893280 
	C220.872513,236.794373 211.292542,212.695465 201.712570,188.596558 
	C201.301849,188.615662 200.891144,188.634750 200.480438,188.653854 
	C188.426224,218.870667 176.372009,249.087479 164.198807,279.602539 
	C189.021637,279.602539 213.074356,279.602539 237.895309,279.602539 
	C235.386032,273.212585 233.100449,267.392273 230.452499,260.893280 
z"/>
<path fill="#FAFAFA" opacity="1.000000" stroke="none" 
	d="
M220.022125,204.128113 
	C213.803833,188.616623 207.770569,173.443100 201.157166,156.810532 
	C198.199570,164.023666 195.795975,169.744919 193.499771,175.508942 
	C180.243637,208.785019 166.957016,242.049255 153.854630,275.385864 
	C152.449249,278.961639 150.560867,280.081207 146.844147,279.966461 
	C138.220505,279.700226 129.583023,279.881683 120.063026,279.881683 
	C147.066544,215.071732 173.802002,150.905151 201.085800,85.422516 
	C228.234238,150.764908 254.861557,214.853088 281.894165,279.916718 
	C275.513855,279.916718 269.813904,279.919678 264.113983,279.916107 
	C250.491348,279.907562 250.448334,279.923645 245.365784,267.288910 
	C236.947144,246.361023 228.590149,225.408325 220.022125,204.128113 
z"/>
<path fill="#01DFE6" opacity="1.000000" stroke="none" 
	d="
M230.633682,261.232605 
	C233.100449,267.392273 235.386032,273.212585 237.895309,279.602539 
	C213.074356,279.602539 189.021637,279.602539 164.198807,279.602539 
	C176.372009,249.087479 188.426224,218.870667 200.480438,188.653854 
	C200.891144,188.634750 201.301849,188.615662 201.712570,188.596558 
	C211.292542,212.695465 220.872513,236.794373 230.633682,261.232605 
z"/>
</svg>